<svg width="512" height="512" viewBox="0 0 512 512" fill="none" xmlns="http://www.w3.org/2000/svg">
<path d="M298 34.9996C299.424 35.2896 299.424 35.2896 300.877 35.5855C330.44 41.6671 359.579 52.9654 384 70.9996C385.233 71.8751 386.466 72.7501 387.699 73.6246C397.899 80.9633 407.043 89.2034 416 97.9996C416.616 98.6019 417.233 99.2042 417.868 99.8248C423.01 104.899 427.511 110.342 432 116C433.228 117.519 433.228 117.519 434.481 119.07C440.776 126.956 446.077 135.199 451 144C451.435 144.768 451.869 145.536 452.317 146.327C464.348 167.77 472.099 189.936 477 214C477.178 214.812 477.356 215.625 477.539 216.462C482.964 241.842 482.556 272.69 477 298C476.823 298.851 476.646 299.703 476.464 300.581C472.471 319.592 466.42 337.5 458 355C457.661 355.704 457.323 356.409 456.974 357.135C437.897 396.213 405.72 429.557 368 451C367.326 451.385 366.651 451.77 365.956 452.167C356.516 457.493 346.891 462.067 336.813 466.062C335.379 466.635 335.379 466.635 333.917 467.22C333.002 467.571 332.087 467.923 331.145 468.285C330.344 468.593 329.543 468.901 328.718 469.219C325.155 470.242 321.686 470.606 318 471C317.724 469.941 317.449 468.882 317.165 467.791C308.96 436.363 300.049 405.305 288.777 374.824C285.236 365.212 282.6 356.527 286.938 346.625C290.202 340.8 295.171 337.914 301 335C303.618 334.867 306.213 334.79 308.832 334.754C310.453 334.721 312.073 334.687 313.693 334.654C316.236 334.607 318.778 334.563 321.321 334.523C341.025 334.199 358.575 332.678 374 319C377.586 315.182 380.819 311.158 384 307C384.727 306.051 385.454 305.102 386.203 304.125C388.063 301.663 389.897 299.185 391.727 296.702C393.16 294.786 394.623 292.894 396.09 291.004C396.624 290.309 397.158 289.615 397.708 288.899C398.745 287.551 399.788 286.207 400.839 284.87C407.602 276.017 410.866 267.151 410 256C408.402 247.13 404.337 239.43 397.313 233.687C388.374 227.693 377.774 225.918 367.342 224.197C360.112 222.807 356.066 220.284 351 215C350.174 214.217 349.348 213.435 348.496 212.628C344.393 208.51 340.465 204.311 336.68 199.898C334.478 197.41 332.119 195.108 329.75 192.781C327.294 190.281 325.037 187.623 322.75 184.968C320.518 182.457 318.141 180.123 315.734 177.781C313.942 175.94 312.364 173.998 310.75 172C302.05 161.956 289.171 156.925 276.25 155.437C275.332 155.322 274.414 155.207 273.468 155.088C270.314 154.703 267.158 154.348 264 154C262.752 153.861 261.504 153.723 260.219 153.581C256.23 153.146 252.241 152.725 248.25 152.312C246.36 152.115 246.36 152.115 244.431 151.913C208.932 148.397 179.137 162.794 151.438 184.187C145.111 189.408 139.684 194.506 138.629 202.98C138.39 214.532 142.143 221.421 149.742 229.894C151 232 151 232 150.895 234.351C149.801 237.589 148.356 240.512 146.813 243.562C141.091 255.388 137.483 267.979 135.438 280.937C132.435 299.739 123.315 310.221 109.684 322.605C107.231 324.838 104.861 327.124 102.535 329.488C100.141 331.91 97.6787 334.188 95.0977 336.41C90.679 340.226 86.5535 344.299 82.4376 348.437C81.7215 349.149 81.0054 349.862 80.2677 350.595C76.1755 354.695 72.2681 358.888 68.5216 363.306C66.5559 365.494 64.3745 367.273 62.0001 369C47.9838 347.391 40.2307 323.025 35.0001 298C34.8193 297.18 34.6385 296.36 34.4522 295.515C29.0307 270.126 29.4587 239.317 35.0001 214C35.2901 212.575 35.2901 212.575 35.586 211.123C41.6668 181.563 52.9618 152.414 71.0001 128C71.8872 126.755 72.7739 125.51 73.6602 124.265C80.2924 115.075 87.5543 106.711 95.4547 98.5919C96.782 97.2243 98.0902 95.8383 99.3946 94.4488C105.673 87.8909 112.757 82.4368 120 76.9996C120.569 76.57 121.138 76.1404 121.724 75.6978C149.36 54.9587 180.297 42.0441 214 34.9996C214.82 34.8188 215.64 34.638 216.485 34.4517C241.873 29.0302 272.682 29.4582 298 34.9996Z" fill="#F6F7F8"/>
<path d="M232.812 165.188C233.963 165.254 233.963 165.254 235.137 165.321C243.469 165.87 251.78 166.694 260.084 167.562C261.678 167.728 263.272 167.889 264.867 168.045C286.409 170.185 298.242 177.731 312.285 194.067C314.5 196.565 316.869 198.881 319.25 201.219C321.706 203.719 323.963 206.377 326.25 209.032C328.48 211.54 330.858 213.871 333.254 216.219C335.076 218.078 336.754 220.016 338.437 222C349.073 234.169 360.276 237.15 375.834 240.067C383.967 241.701 389.157 243.908 394 251C396.491 255.484 396.73 260 396 265C393.47 273.241 387.447 279.721 382.062 286.25C379.343 289.55 376.782 292.93 374.25 296.375C365.192 308.474 356.924 317.271 341.317 319.535C337.05 320.052 332.841 320.135 328.547 320.141C326.941 320.159 325.336 320.179 323.73 320.2C321.245 320.228 318.76 320.25 316.274 320.251C303.142 320.269 291.709 321.486 281.746 331.055C273.715 340.002 270.231 349.056 270.527 361.09C271.455 368.761 274.268 375.812 277 383C286.651 408.402 294.354 434.491 301.312 460.75C301.608 461.85 301.904 462.949 302.209 464.081C302.466 465.081 302.723 466.08 302.988 467.11C303.21 467.965 303.432 468.821 303.661 469.703C304.02 472.134 303.769 473.687 303 476C300.355 476.483 297.709 476.962 295.062 477.438C294.327 477.573 293.592 477.707 292.834 477.846C292.096 477.978 291.358 478.11 290.598 478.246C289.933 478.367 289.267 478.487 288.582 478.611C281.602 479.663 274.728 480.165 267.672 480.204C266.809 480.211 265.946 480.218 265.057 480.225C262.288 480.242 259.519 480.249 256.75 480.25C255.332 480.251 255.332 480.251 253.886 480.252C240.366 480.237 227.253 479.91 214 477C213.148 476.823 212.296 476.647 211.419 476.464C167.239 467.186 129.711 445.828 97 415C96.2678 414.311 95.5356 413.621 94.7812 412.911C89.3707 407.661 84.6618 401.916 80 396C79.5741 395.473 79.1482 394.945 78.7094 394.401C77.4177 392.799 76.1445 391.183 74.875 389.563C73.7264 388.111 73.7264 388.111 72.5546 386.629C71 384 71 384 71.0312 381.887C72.2432 379.527 73.6855 378.063 75.625 376.25C78.2447 373.786 80.6641 371.253 82.996 368.52C87.6662 363.133 92.7217 358.129 97.7697 353.1C99.4342 351.441 101.093 349.777 102.752 348.112C107.738 343.122 112.756 338.227 118.12 333.64C121.76 330.466 125.188 327.078 128.625 323.688C129.349 322.992 130.074 322.297 130.82 321.58C143.476 309.073 147.405 294.063 150.336 277.079C152.314 266.292 156.004 255.772 161 246C161.66 246 162.32 246 163 246C164.685 247.964 166.255 249.939 167.812 252C168.81 253.296 169.809 254.59 170.809 255.883C171.332 256.562 171.855 257.24 172.394 257.939C175.534 261.97 178.771 265.923 182.014 269.871C184.857 273.337 187.648 276.828 190.363 280.395C197.43 289.591 203.042 296.085 215 298C223.074 298.418 230.006 295.809 236.242 290.746C242.811 284.222 244.145 277.886 244.177 268.899C244.187 267.679 244.187 267.679 244.197 266.434C244.217 263.748 244.228 261.062 244.238 258.375C244.242 257.457 244.246 256.539 244.251 255.593C244.271 250.739 244.286 245.884 244.295 241.03C244.306 236.012 244.341 230.996 244.38 225.978C244.406 222.121 244.415 218.265 244.418 214.407C244.423 212.557 244.435 210.707 244.453 208.858C244.478 206.272 244.477 203.688 244.47 201.102C244.483 200.337 244.496 199.572 244.509 198.784C244.474 195.294 244.252 193.344 242.162 190.494C240.018 188.71 240.018 188.71 236.937 189C233.461 190.184 232.752 190.819 231 194C230.722 196.708 230.613 199.182 230.647 201.887C230.644 203.073 230.644 203.073 230.64 204.283C230.637 205.997 230.641 207.712 230.65 209.426C230.664 212.142 230.658 214.857 230.646 217.573C230.615 225.293 230.619 233.013 230.64 240.733C230.651 245.458 230.637 250.183 230.61 254.908C230.604 256.706 230.608 258.504 230.622 260.302C230.641 262.821 230.63 265.337 230.612 267.855C230.632 268.964 230.632 268.964 230.652 270.094C230.562 275.817 228.923 278.135 225 282C222.789 283.129 222.789 283.129 220.625 283.563C219.561 283.812 219.561 283.812 218.477 284.067C214.204 283.952 210.662 282.474 207.493 279.664C206.003 278.056 204.62 276.399 203.25 274.688C202.737 274.068 202.224 273.449 201.695 272.81C200.112 270.887 198.552 268.948 197 267C196.535 266.418 196.071 265.835 195.592 265.234C193.325 262.377 191.079 259.505 188.84 256.625C185.819 252.751 182.728 248.935 179.625 245.125C179.085 244.462 178.546 243.799 177.99 243.116C175.179 239.664 172.359 236.22 169.531 232.782C166.798 229.454 164.086 226.111 161.398 222.747C160.15 221.188 158.89 219.638 157.629 218.09C154.095 213.489 151.9 209.896 152.461 203.954C153.41 200.516 155.211 199.176 158 197C158.635 196.442 159.271 195.884 159.926 195.309C179.309 178.738 206.726 163.646 232.812 165.188Z" fill="#F6F7F8"/>
</svg>
